# xmcd
#
# Track frame offsets: 
#        150
#        21220
#        33563
#        46998
#        76027
#        99980
#        123703
#        140475
#        158870
#        171493
#        197388
#        217110
#
# Disc length: 3234 seconds
#
# Revision: 1
# Processed by: cddbd v1.5.2PL0 Copyright (c) Steve Scherf et al.
# Submitted via: ExactAudioCopy v1.0b2
#
DISCID=a20ca00c
DTITLE=Al Jones - sharper than a tack
DYEAR=1999
DGENRE=Blues
TTITLE0=Baby what you want me to do
TTITLE1=Wild woman
TTITLE2=Born under a bad sign
TTITLE3=I can't quit you, baby
TTITLE4=We all wanna boogie
TTITLE5=West side stroll
TTITLE6=I got the blues
TTITLE7=Shadow on the floor
TTITLE8=I feel good
TTITLE9=Five long years
TTITLE10=Sharper than a tack
TTITLE11=Dont't change your mind
EXTD=YEAR: 1999 ID3G: 0
EXTT0=
EXTT1=
EXTT2=
EXTT3=
EXTT4=
EXTT5=
EXTT6=
EXTT7=
EXTT8=
EXTT9=
EXTT10=
EXTT11=
PLAYORDER=
